<svg  xmlns="http://www.w3.org/2000/svg" class="monogram-def">
  <symbol id="monogram" viewBox="0 0 4.466 5">
    <title>Peter Elliott</title>
    <path fill="currentColor" d="m1.412 0-.011.132s.4.016.4.469v1.1q0 .3-.3.3H.05L0 2.688l.1.013s.1-.3.4-.3h1q.3 0 .3.3v.4c0 .148-.052.2-.2.2H.9c-.2 0-.25-.2-.25-.2H.6v.8h.05s.05-.2.25-.2h.7c.148 0 .2.052.2.2v.4q0 .3-.3.3h-1c-.3 0-.4-.3-.4-.3l-.1.013.05.687h3.9L4 4.314 3.9 4.3s-.1.3-.4.3h-1q-.3 0-.3-.3v-.4c0-.148.052-.2.2-.2h.7c.2 0 .25.2.25.2h.05v-.8h-.05s-.05.2-.25.2h-.7c-.148 0-.2-.052-.2-.2v-.4c0-.206.094-.295.284-.3h.982c.333 0 .613-.096.783-.316s.216-.516.216-.885c0-.37-.047-.662-.216-.883C4.079.096 3.799 0 3.465 0Zm1.089.4.965.001c.267 0 .387.054.467.158s.133.31.133.641c0 .33-.053.536-.133.64-.08.105-.2.16-.467.16h-.965q-.3 0-.3-.3v-1q0-.3.3-.3" overflow="visible"/>
  </symbol>
</svg>
